<svg xmlns="http://www.w3.org/2000/svg" viewBox="0 0 2584.26 256.96"><g id="Layer_2" data-name="Layer 2"><g id="Layer_1-2" data-name="Layer 1"><path d="M121.42,138.94,94.6,144.6c-8,1.68-10.48,6.29-10.9,7.54-1.26,1.68-2.31,4-3.77,6.29-6.29,10.9-15.51,26.4-24.94,22.42h0c-23.68-9.22-15.72-62-12.78-82.56v-.42h0a34,34,0,0,1,7.75-18A40.51,40.51,0,0,1,68.19,69c6.92-1.89,11.32,1.67,16.77,6.28a76.73,76.73,0,0,0,6.07,5,8.21,8.21,0,0,0,7.55,1.89h0l9.64-2.1L90.62,0a116.74,116.74,0,0,0,50.29,228" fill="#55ab55"/><path d="M185.59,138.94l26.83,5.66c8,1.68,10.48,6.29,10.89,7.54,1.26,1.68,2.31,4,3.78,6.29,6.28,10.9,15.5,26.4,24.93,22.42h0c23.48-9.43,15.51-62,12.58-82.56v-.42h0a34.06,34.06,0,0,0-7.76-18A40.42,40.42,0,0,0,238.61,69c-6.91-1.89-11.31,1.67-16.76,6.28a76.88,76.88,0,0,1-6.08,5,8.19,8.19,0,0,1-7.54,1.89h0l-9.64-2.1L216.4,0a116.75,116.75,0,0,1-50.3,228" fill="#f28500"/><path d="M369.8,37.39h46.48v67.8h71.65V37.39h46.48V217.16H487.93V144.48H416.28v72.68H369.8Z"/><path d="M702.63,114.69v55.22c0,37-17.21,48.79-51.88,48.79H611.2c-34.41,0-51.62-11.81-51.62-48.79V114.69c0-37.24,17.21-48.79,51.62-48.79h39.55C685.42,65.9,702.63,77.45,702.63,114.69Zm-45.2,55.22v-56c0-9.76-4.37-13.61-14.13-13.61H618.65c-9.76,0-14.13,3.85-14.13,13.61v56c0,9.75,4.37,13.61,14.13,13.61H643.3C653.06,183.52,657.43,179.66,657.43,169.91Z"/><path d="M725.48,68.21h45.2v10c11.3-5.9,25.42-11.55,37-11.55h6.16c33.39,0,50.34,8.73,50.34,45.2V217.16H819V116.49c0-9.76-4.36-12.84-13.87-12.84h-4.88c-8.47,0-18,3.34-29.53,5.65V217.16h-45.2Z"/><path d="M1014.13,213.31a596,596,0,0,1-76.78,5.13c-34.41,0-51.62-9.24-51.62-46.22v-57c0-26.7,18.49-47.25,52.9-47.25h33.65c34.66,0,51.87,20.55,51.87,47.25v42.12c0,2.83,0,3.6-2.57,3.6H930.67v8.73c0,12.07,2.83,13.61,14.13,13.61h70.11Zm-32.35-93.74c0-15.67-5.4-18.49-16.95-18.49H948.9c-11.55,0-18.23,2.57-18.23,18.49V131.9l51.11-.77Z"/><path d="M1061.13,223.84h22.6c9.24,0,11-1.8,13.35-10a67.17,67.17,0,0,0,1.8-6.68h-15.66c-9,0-13.1-10.53-13.36-11,0-.26-42.89-127.89-42.89-127.89h51.88l26.45,93h7.45l22.6-93L1187,68s-43.15,143.56-43.4,144.84C1133,248.23,1127.64,257,1092.46,257c-15.15,0-31.33-5.9-31.33-5.9Z"/><path d="M1199,27.63h45.2V78.22c11.3-5.65,25.42-11.55,37-11.55h6.42c33.64.25,50.33,9,50.33,45.45V173c0,36.47-16.69,45.45-50.33,45.71h-6.42c-11.56,0-25.68-6.16-37-11.81v10.27H1199Zm45.2,147.93c11.55,2.56,21,5.9,29.53,5.9h5.14c9.75,0,14.12-3.34,14.12-12.84V116.75c0-9.76-4.37-13.1-14.12-13.1h-5.14c-8.48,0-18,3.34-29.53,5.9Z"/><path d="M1485.12,213.31a596,596,0,0,1-76.78,5.13c-34.41,0-51.62-9.24-51.62-46.22v-57c0-26.7,18.49-47.25,52.9-47.25h33.64c34.67,0,51.88,20.55,51.88,47.25v42.12c0,2.83,0,3.6-2.57,3.6h-90.91v8.73c0,12.07,2.83,13.61,14.12,13.61h70.12Zm-32.35-93.74c0-15.67-5.4-18.49-17-18.49H1419.9c-11.56,0-18.24,2.57-18.24,18.49V131.9l51.11-.77Z"/><path d="M1562.68,217.16h-44.94V27.63h44.94Z"/><path d="M1633.3,217.16h-44.94V27.63h44.94Z"/><path d="M1788.67,112.38h82.95l-2.57,94.76c-.26,7.45-6.68,8-7.19,8,0,0-54.19,3.59-96,3.59-34.41,0-52.39-22.86-52.39-49.57v-84c0-26.71,18-49.31,52.39-49.31,44.43,0,95,2,95,2l-.51,38h-81.93c-13.35,0-18.49,6.42-18.49,18V160.4c0,11.56,5.14,18.24,18.49,18h49.31l.52-28.76-39.55-2.06Z"/><path d="M1979.74,66.67c34.66,0,52.13,8.47,51.87,45.45v105h-44.94V206.89c-11.3,5.65-25.43,11.81-37,11.81h-7.19c-33.65-.26-50.34,1.54-50.34-45.71V159.63c0-37.49,16.69-39.55,50.34-39.8h11c15.41,0,21.06,2.31,33.13,5.13v-9.24c-.51-12.59-5.14-15.92-18-15.92l-61.38.25V70.78A607.57,607.57,0,0,1,1979.74,66.67Zm-20.29,81.66h-8.74c-10.52,0-14.12,1.54-14.12,12.84v12.59c0,9.5,4.37,12.84,14.12,12.84h6.17c8.47,0,18.23-3.34,29.79-5.91V150.64C1975.11,149.1,1967.92,148.33,1959.45,148.33Z"/><path d="M2101,68.21v9c10.27-5.4,20-10.53,31.07-10.53h6.16c19.26,0,32.88,3.08,40.84,12.84,12.58-6.68,28-12.84,39.55-12.84h6.16c33.39,0,50.34,8.73,50.34,45.2V217.16h-45.2V116.49c0-9.76-4.37-12.84-13.87-12.84h-4.88c-6.16,0-16.44,3.08-23.11,5.13a20.4,20.4,0,0,1,.51,5.91V217.16h-44.94V116.49c0-9.76-4.37-12.84-14.13-12.84h-4.62c-8.22,0-14.12,3.08-23.88,5.39V217.16h-45.2V68.21Z"/><path d="M2427.1,213.31a596.23,596.23,0,0,1-76.79,5.13c-34.41,0-51.62-9.24-51.62-46.22v-57c0-26.7,18.49-47.25,52.9-47.25h33.65c34.67,0,51.87,20.55,51.87,47.25v42.12c0,2.83,0,3.6-2.56,3.6h-90.92v8.73c0,12.07,2.83,13.61,14.13,13.61h70.11Zm-32.36-93.74c0-15.67-5.39-18.49-16.95-18.49h-15.92c-11.56,0-18.24,2.57-18.24,18.49V131.9l51.11-.77Z"/><path d="M2575,101.85h-66.77c-7.19,0-9.76,0-9.76,4.37v3.85c0,4.88,2.31,5.39,5.13,5.9l33.65,6.42c30.81,5.4,47,7.2,47,40.07v9c0,35.18-18,47.25-52.39,47.25a723.72,723.72,0,0,1-80.38-4.88l.26-31.59h70.36c13.61,0,18.49-1.8,18.49-9.76v-4.11c0-4.1-2.31-5.9-16.95-8.47-11.81-2-31.07-5.14-41.86-7.19-18.49-3.85-28.5-9.25-28.5-33.64V107.24c0-35.18,17.21-40.57,51.87-40.57,41.86,0,70.11,2.82,70.11,2.82Z"/></g></g></svg>