<svg xmlns="http://www.w3.org/2000/svg" viewBox="0 0 294.13 205.93"><defs><style>.cls-1{fill:#fff;}</style></defs><g id="Layer_2" data-name="Layer 2"><g id="Layer_1-2" data-name="Layer 1"><path class="cls-1" d="M288.07,32.22A36.85,36.85,0,0,0,262.15,6.3C239.13,0,147.06,0,147.06,0S55,0,32,6.05A37.63,37.63,0,0,0,6.06,32.22C0,55.24,0,103,0,103s0,48,6.06,70.74A36.83,36.83,0,0,0,32,199.63c23.26,6.3,115.08,6.3,115.08,6.3s92.07,0,115.09-6.05A36.88,36.88,0,0,0,288.07,174c6.06-23,6.06-70.74,6.06-70.74S294.37,55.24,288.07,32.22ZM117.75,147.06V58.87L194.31,103Z"/></g></g></svg>