<svg xmlns="http://www.w3.org/2000/svg" viewBox="0 0 1517 909.32"><defs><style>.cls-1{fill:#fff;}</style></defs><g id="Layer_2" data-name="Layer 2"><g id="Layer_2-2" data-name="Layer 2"><path class="cls-1" d="M1517,132.27V777.05a127.34,127.34,0,0,1-28,79.8L979.35,429.52,1499.57,68.09A125.63,125.63,0,0,1,1517,132.27Z"/><path class="cls-1" d="M1467.25,30.26l-527,366.32L898,425.86,755.09,525.19l-145-97.62-42.68-28.8L37.63,41.24A139.17,139.17,0,0,1,136.88,0h1243.5A139.88,139.88,0,0,1,1467.25,30.26Z"/><path class="cls-1" d="M528.06,431.72,24.5,852.21A127.34,127.34,0,0,1,0,777.05V132.27a122.65,122.65,0,0,1,10.35-50Z"/><path class="cls-1" d="M1451.34,889.8a137.11,137.11,0,0,1-71,19.52H136.88a138.84,138.84,0,0,1-76.27-22.69L570.74,460.52,741,575.22a25.51,25.51,0,0,0,14.39,4.39A26,26,0,0,0,770,575L937.17,458.81Z"/></g></g></svg>