<svg id="Layer_1" data-name="Layer 1" xmlns="http://www.w3.org/2000/svg" viewBox="0 0 46.9 71"><defs><style>.cls-1,.cls-2{fill:#fff;}.cls-1{fill-rule:evenodd;}</style></defs><path class="cls-1" d="M4.25,67.09c-.84-1.45-1.49-1-2.35-4.88C-.18,70.21,5.85,69.81,4.25,67.09Z" transform="translate(0.01 0)"/><path class="cls-1" d="M9.28,44.9c2,3.09,8.72,5.17,16,4.72,2.46.09,3.63.94,5.44,1.88a2.77,2.77,0,0,0,3.45-1.14,11.14,11.14,0,0,1,4-4.78h0c5.25-3.49,9-9.43,8.76-18.75,0,3.72-2.7,7.82-9.52,11.52-9.49,4.91-18.65.94-28.06,6.55Z" transform="translate(0.01 0)"/><path class="cls-1" d="M25.85,10.34c5.4,3.81,7.39-4,16.38-1.6C36.16-1.62,25.69.91,25.69,9.15v.1c2-3,4.25-4.78,9.57-4-4-.18-7.27,2.53-9.47,5.1Z" transform="translate(0.01 0)"/><path class="cls-1" d="M23.39,11.21c-7.13,4.24-8.85-5.69-20.33-3.63,8.63-12.36,21.5-8.15,20.63,2.2V9.9c-2.23-4-4.85-6.41-11.57-6,5.07.17,8.84,3.89,11.34,7.32Z" transform="translate(0.01 0)"/><path class="cls-1" d="M46.13,25c.15,4.43-3.71,8.31-9.29,11.26-9.72,4.91-19,.6-28.67,6.61-8,6.52.56,16.62,1.18,20.47,1.88,11.7-12,8.82-8.91-.83C5,53,4.87,49.9,2.08,42.52-4.31,27.66,13,12.15,29.59,13H30c8.93,0,16.16,5.06,16.16,11.3V25ZM4.75,42c4.27-3.86,12.5-5.1,17.84-5.46,4.67-.31,9.13-.47,13.42-2.86,3.4-2,8.4-5.69,7.34-10.65C40.1,7.75-3.13,16.21,4.75,42Z" transform="translate(0.01 0)"/><path class="cls-2" d="M31,19.23a1.81,1.81,0,0,0-1.15,2.2,1.77,1.77,0,1,0,3.4-1,1.75,1.75,0,0,0-.85-1.05A1.77,1.77,0,0,0,31,19.23Zm-2.66,4.92a1.78,1.78,0,0,0-.35,3.26,1.72,1.72,0,0,0,1.35.14,1.76,1.76,0,0,0,1.2-2.19,1.74,1.74,0,0,0-.8-1.11A1.79,1.79,0,0,0,28.29,24.15Zm7.53-2.21a1.77,1.77,0,1,0,1,3.4h0a1.71,1.71,0,0,0,1-.85,1.77,1.77,0,0,0-2-2.55Zm-2.65,4.87a1.78,1.78,0,0,0,1,3.41,1.79,1.79,0,0,0,1.06-.85A1.72,1.72,0,0,0,35.37,28,1.79,1.79,0,0,0,34.52,27a1.74,1.74,0,0,0-1.34-.15Z" transform="translate(0.01 0)"/><path class="cls-2" d="M13.69,23.81a1.45,1.45,0,0,0-.91,1.78l.79,2.7-2.7.8a1.45,1.45,0,1,0,.73,2.81l.09,0,2.7-.79.8,2.7A1.45,1.45,0,0,0,18,33.12.83.83,0,0,0,18,33l-.79-2.71,2.69-.79a1.45,1.45,0,1,0-.81-2.79l-2.7.8-.8-2.7a1.44,1.44,0,0,0-1.77-1h-.1Z" transform="translate(0.01 0)"/></svg>